<?xml version="1.0" standalone="no"?>
<!DOCTYPE svg PUBLIC "-//W3C//DTD SVG 20010904//EN"
 "http://www.w3.org/TR/2001/REC-SVG-20010904/DTD/svg10.dtd">
<svg version="1.0" xmlns="http://www.w3.org/2000/svg"
 width="500.000000pt" height="500.000000pt" viewBox="0 0 500.000000 500.000000"
 preserveAspectRatio="xMidYMid meet">
<metadata>
Created by potrace 1.14, written by Peter Selinger 2001-2017
</metadata>
<g transform="translate(0.000000,500.000000) scale(0.100000,-0.100000)"
fill="#000000" stroke="none">
<path d="M610 4564 c-299 -65 -508 -323 -508 -630 0 -40 4 -93 10 -116 5 -24
12 -53 14 -66 14 -73 83 -188 162 -269 147 -154 386 -224 597 -176 271 61 477
294 502 568 l5 60 -243 0 -244 0 -16 -47 c-38 -112 -167 -142 -250 -59 -80 80
-56 202 48 247 27 12 321 14 1822 14 1983 0 1831 5 1879 -65 85 -123 -31 -282
-171 -236 -45 15 -94 70 -102 113 l-6 33 -246 0 -245 0 6 -67 c21 -219 174
-432 373 -519 81 -36 178 -57 263 -57 350 -1 633 267 645 613 6 145 -21 251
-92 368 -39 65 -152 182 -184 192 -10 4 -19 10 -19 14 0 10 -128 68 -162 75
-13 2 -43 9 -68 15 -31 7 -617 10 -1875 10 -1533 -1 -1841 -3 -1895 -15z"/>
<path d="M1490 2420 l0 -1510 245 0 245 0 0 1510 0 1510 -245 0 -245 0 0
-1510z"/>
<path d="M2250 2165 l0 -1765 245 0 245 0 0 1765 0 1765 -245 0 -245 0 0
-1765z"/>
<path d="M3010 2420 l0 -1510 250 0 250 0 0 1510 0 1510 -250 0 -250 0 0
-1510z"/>
</g>
</svg>
